<svg width="70" height="70" viewBox="0 0 70 70" fill="none" xmlns="http://www.w3.org/2000/svg">
<path d="M14.5833 32.0835C16.1304 32.0835 17.6142 32.6981 18.7081 33.792C19.8021 34.886 20.4167 36.3697 20.4167 37.9168V43.7502H49.5833V37.9168C49.5833 36.3697 50.1979 34.886 51.2919 33.792C52.3858 32.6981 53.8696 32.0835 55.4167 32.0835C56.9638 32.0835 58.4475 32.6981 59.5415 33.792C60.6354 34.886 61.25 36.3697 61.25 37.9168V49.5835C61.25 51.1306 60.6354 52.6143 59.5415 53.7083C58.4475 54.8022 56.9638 55.4168 55.4167 55.4168H14.5833C13.0362 55.4168 11.5525 54.8022 10.4585 53.7083C9.36458 52.6143 8.75 51.1306 8.75 49.5835V37.9168C8.75 36.3697 9.36458 34.886 10.4585 33.792C11.5525 32.6981 13.0362 32.0835 14.5833 32.0835V32.0835Z" stroke="#3775EE" stroke-width="5" stroke-linecap="round" stroke-linejoin="round"/>
<path d="M14.5833 32.0833V17.5C14.5833 15.1794 15.5052 12.9538 17.1461 11.3128C18.7871 9.67187 21.0127 8.75 23.3333 8.75H46.6667C48.9873 8.75 51.2129 9.67187 52.8538 11.3128C54.4948 12.9538 55.4167 15.1794 55.4167 17.5V32.0833" stroke="#3775EE" stroke-width="5" stroke-linecap="round" stroke-linejoin="round"/>
<path d="M17.5 55.4165V61.2498" stroke="#3775EE" stroke-width="5" stroke-linecap="round" stroke-linejoin="round"/>
<path d="M52.5 55.4165V61.2498" stroke="#3775EE" stroke-width="5" stroke-linecap="round" stroke-linejoin="round"/>
</svg>
