<svg width="70" height="70" viewBox="0 0 70 70" fill="none" xmlns="http://www.w3.org/2000/svg">
<path d="M26.25 14.5835H20.4167C18.8696 14.5835 17.3858 15.1981 16.2919 16.292C15.1979 17.386 14.5833 18.8697 14.5833 20.4168V55.4168C14.5833 56.9639 15.1979 58.4477 16.2919 59.5416C17.3858 60.6356 18.8696 61.2502 20.4167 61.2502H49.5833C51.1304 61.2502 52.6142 60.6356 53.7081 59.5416C54.8021 58.4477 55.4167 56.9639 55.4167 55.4168V20.4168C55.4167 18.8697 54.8021 17.386 53.7081 16.292C52.6142 15.1981 51.1304 14.5835 49.5833 14.5835H43.75" stroke="#3775EE" stroke-width="5" stroke-linecap="round" stroke-linejoin="round"/>
<path d="M37.9167 8.75H32.0833C28.8617 8.75 26.25 11.3617 26.25 14.5833C26.25 17.805 28.8617 20.4167 32.0833 20.4167H37.9167C41.1383 20.4167 43.75 17.805 43.75 14.5833C43.75 11.3617 41.1383 8.75 37.9167 8.75Z" stroke="#3775EE" stroke-width="5" stroke-linecap="round" stroke-linejoin="round"/>
<path d="M26.25 40.8333H26.2792" stroke="#3775EE" stroke-width="5" stroke-linecap="round" stroke-linejoin="round"/>
<path d="M26.25 49.5833H26.2792" stroke="#3775EE" stroke-width="5" stroke-linecap="round" stroke-linejoin="round"/>
<path d="M35 46.6666L37.9167 49.5833L46.6667 40.8333" stroke="#3775EE" stroke-width="5" stroke-linecap="round" stroke-linejoin="round"/>
</svg>
