<svg width="83" height="70" viewBox="0 0 83 70" fill="none" xmlns="http://www.w3.org/2000/svg">
<g clip-path="url(#clip0_1005_133)">
<path d="M0.10376 61.2221C0.10376 54.6665 4.40544 46.6665 11.7955 46.6665C16.5384 46.6665 18.6341 50.2221 18.6341 54.4443C18.6341 61.5554 14.2221 69.9998 6.94233 69.9998C2.30975 69.9998 0.10376 65.8887 0.10376 61.2221ZM4.95694 60.5554C4.95694 63.6665 6.05993 66.111 8.59682 66.111C11.5749 66.111 15.5457 62.2221 15.5457 54.3332C15.5457 50.7776 14.0015 48.8887 12.0161 48.8887C7.82472 48.9998 4.95694 55.5554 4.95694 60.5554Z" fill="#076197"/>
<path d="M20.068 55.9996C21.2812 55.2218 22.4945 54.5552 23.9284 54.5552C25.1417 54.5552 25.9138 55.1107 25.5829 56.2218L25.252 57.5552C26.6859 55.7774 28.8919 54.5552 30.8773 54.5552C32.7524 54.5552 34.076 55.7774 33.1936 58.9996L31.5391 65.8885C31.3185 66.7774 31.7597 67.1107 32.4215 67.1107C33.7451 67.1107 35.179 66.3329 36.0614 65.6663C36.3923 65.7774 36.6129 66.1107 36.6129 66.333C36.6129 66.5552 36.5026 66.7774 36.282 66.9996C34.6275 68.5552 32.3112 69.9996 29.9949 69.9996C28.2301 69.9996 26.4653 69.2218 27.3477 65.7774L28.7816 59.7774C29.1125 58.5552 28.561 57.9996 27.7889 57.9996C26.9065 57.9996 25.4726 58.7774 24.7005 59.5552L22.6048 68.1107C22.4945 69.4441 21.1709 69.9996 19.9577 69.9996C19.2959 69.9996 18.7444 69.8885 18.3032 69.5552L21.1709 57.9996C21.2812 57.5552 21.1709 57.2218 20.84 57.2218C20.6195 57.2218 20.5092 57.333 20.1783 57.5552C19.6268 57.4441 19.4062 56.5552 20.068 55.9996Z" fill="#076197"/>
<path d="M40.4734 65.1107C40.8043 66.7774 42.1279 67.3329 43.6721 67.3329C46.2089 67.3329 49.2973 65.7774 50.8415 64.1107C51.7239 63.9996 52.0548 64.5552 51.7239 65.1107C49.2973 68.2218 45.3266 69.9996 41.9073 69.9996C38.7086 69.9996 36.0614 68.3329 36.0614 64.6663C36.0614 60.7774 39.0395 54.5552 44.7751 54.5552C47.9737 54.5552 48.7458 56.1107 48.7458 57.4441C48.7458 59.8885 47.2016 61.8885 40.4734 65.1107ZM40.3631 63.8885C43.6721 62.1107 45.9883 59.9996 45.9883 57.9996C45.9883 57.333 45.5472 56.7774 44.9957 56.7774C41.5764 56.7774 40.4734 61.7774 40.3631 63.8885Z" fill="#076197"/>
<path d="M55.5844 61.3332L55.805 61.2221C57.4595 60.7777 59.7758 57.9999 60.6582 54.7777C61.2097 54.5554 61.7612 54.4443 62.3127 54.4443C63.526 54.4443 64.0775 55.111 64.0775 55.8888C64.0775 57.6666 61.4303 60.3332 59.2243 61.5554C59.6655 63.2221 60.6582 66.7777 63.1951 66.7777C63.8569 66.7777 64.629 66.2221 65.5114 65.5554C65.8423 65.6665 66.0629 65.9999 66.0629 66.2221C66.0629 66.4443 65.9526 66.6665 65.732 66.8888C64.629 68.3332 62.2024 69.9999 60.7685 69.9999C57.3492 69.9999 56.3565 65.2221 55.9153 62.8888L55.2535 62.9999L54.0402 68.111C53.7093 69.4443 52.3857 69.9999 51.1724 69.9999C50.5106 69.9999 49.9591 69.8888 49.5179 69.6665L52.3857 58.111C52.496 57.5554 52.3857 57.3332 52.0548 57.3332C51.8342 57.3332 51.7239 57.4443 51.393 57.6666C50.9518 57.4443 50.7312 56.4443 51.393 55.9999C52.6063 55.2221 53.8196 54.5554 55.2535 54.5554C56.4668 54.5554 57.2389 54.9999 56.908 56.2221L55.5844 61.3332Z" fill="#076197"/>
<path d="M79.2988 64.8885C78.9679 66.4441 79.4091 67.1107 80.0709 67.1107C80.7327 67.1107 81.5048 66.7774 82.0563 65.6663C82.7181 65.6663 83.049 65.9996 83.049 66.4441C83.049 68.5552 80.1812 69.9996 78.3061 69.9996C76.6516 69.9996 74.9971 69.3329 75.1074 66.9996C73.6735 68.7774 71.7984 69.9996 69.813 69.9996C66.1732 69.9996 65.5114 66.8885 65.5114 64.9996C65.5114 59.7774 69.3718 54.5552 74.225 54.5552C75.7692 54.5552 76.8722 54.8885 77.7546 55.5552C78.3061 54.9996 79.2988 54.6663 80.0709 54.6663C80.7327 54.6663 81.2842 54.7774 81.7254 54.9996L79.2988 64.8885ZM75.1074 64.9996L77.0928 56.9996C76.5413 56.7774 75.9898 56.7774 75.4383 56.7774C71.2469 56.7774 69.813 61.5552 69.813 64.7774C69.813 66.2218 70.5851 66.8885 71.6881 66.8885C72.6808 66.8885 74.1147 66.1107 75.1074 64.9996Z" fill="#076197"/>
<path fill-rule="evenodd" clip-rule="evenodd" d="M81.946 37.4442C79.4091 38.5553 77.0928 39.1109 74.7765 39.3331C66.5041 38.7776 62.5333 31.4442 53.7093 28.3331C56.6874 27.7776 58.8934 25.7776 58.6728 21.3331C66.7247 17.3331 69.5924 7.55534 69.1512 -0.111328C69.1512 -0.111328 69.1513 -0.111328 69.041 0.110894C68.9307 0.222005 68.8204 0.555339 68.8204 0.555339C59.7758 19.222 27.8992 6.11089 24.3697 25.4442C22.0534 22.3331 18.6341 21.5553 16.6487 23.6665C15.656 22.9998 13.8912 22.7776 12.1264 24.1109C13.2294 24.222 14.4427 24.8887 15.4354 25.7776C14.4427 25.1109 13.2294 25.222 11.9058 25.7776C13.3397 25.6665 14.7736 25.7776 16.4281 26.6665V26.5553C15.7663 25.3331 14.7736 24.1109 13.3397 23.9998C14.9942 23.8887 16.4281 24.3331 17.5311 25.3331C17.4208 24.1109 18.3032 23.5553 19.2959 23.5553C24.3697 23.4442 26.4654 29.9998 27.0169 32.1109C26.7963 29.6665 26.1345 27.6665 25.1418 26.1109C28.8919 9.1109 61.5406 21.7776 68.2689 3.77756C68.4895 8.55534 65.2908 16.222 58.8934 19.8887C58.7831 19.9998 57.9007 20.3331 57.9007 20.3331C57.9007 20.3331 58.011 20.8887 58.011 21.3331C58.011 21.5553 58.011 21.7776 58.011 21.8887C57.7904 26.1109 53.1578 27.1109 50.29 26.6665C46.4296 26.1109 41.1352 23.9998 33.8554 26.9998C31.6494 27.8887 29.3331 29.4442 27.0169 31.9998C45.7678 16.9998 59.6655 49.8887 80.7327 38.1109C70.3645 45.6665 45.4369 47.222 33.9657 33.9998C39.8116 45.4442 70.5851 53.3331 81.946 37.4442ZM45.3266 28.1109C55.0329 27.8887 60.5479 35.9998 67.2762 38.7776C59.114 36.9998 52.1651 31.1109 45.3266 28.1109Z" fill="#076197"/>
<path fill-rule="evenodd" clip-rule="evenodd" d="M30.5464 46.6665C14.9942 38.7776 19.5164 27.4442 11.6852 25.8887C19.2958 29.3331 12.8985 41.5553 30.5464 46.6665Z" fill="#076197"/>
<path fill-rule="evenodd" clip-rule="evenodd" d="M19.1855 26.333C18.7443 26.8886 18.9649 27.7775 19.6267 27.9997C20.2885 28.2219 20.5091 28.1108 20.84 28.333L21.5018 28.7775C21.5018 28.7775 21.3915 28.4441 21.2812 27.9997C21.0606 27.5552 21.2812 26.9997 20.84 26.4441C20.2885 25.8886 19.6267 25.7775 19.1855 26.333ZM19.737 27.4441C19.5164 27.333 19.5164 26.9997 19.6267 26.7775C19.8473 26.5552 20.0679 26.5552 20.1782 26.7775C20.3988 26.7775 21.0606 28.1108 19.737 27.4441Z" fill="#076197"/>
<path fill-rule="evenodd" clip-rule="evenodd" d="M13.5603 25.3331C14.0015 22.6664 15.4354 20.4442 17.9723 18.5553L17.4208 17.8887C14.9942 20.1109 13.1191 21.9998 12.6779 25.3331C13.0088 25.4442 13.3397 25.4442 13.5603 25.3331ZM13.1191 31.6664C13.7809 34.222 14.6633 34.5553 15.1045 34.222C13.8912 31.5553 13.3397 29.1109 13.45 26.8887C13.2294 26.6665 13.0088 26.4442 12.6779 26.3331C12.5676 27.7776 12.6779 29.5553 13.1191 31.6664Z" fill="#91BF29"/>
<path fill-rule="evenodd" clip-rule="evenodd" d="M14.1118 23.5556C11.3543 25.8889 15.3251 20.8889 13.8912 16.2222L14.7736 16C15.656 18.2222 15.2148 20.5556 14.1118 23.5556Z" fill="#91BF29"/>
<path fill-rule="evenodd" clip-rule="evenodd" d="M16.9796 18.5555C17.5311 12.2222 23.8181 14.7777 25.8035 13.2222C25.252 16.7777 21.2812 19.4444 17.3105 19.1111L16.9796 18.5555Z" fill="#91BF29"/>
<path fill-rule="evenodd" clip-rule="evenodd" d="M14.4427 18C12.4573 13.3333 8.26596 16.1111 6.39087 15C7.38356 18.1111 11.244 19.5556 14.2221 18.8889L14.4427 18Z" fill="#91BF29"/>
<path fill-rule="evenodd" clip-rule="evenodd" d="M13.8912 16.3331C10.4719 11.6664 14.6633 10.222 14.553 8.11084C17.8619 10.7775 16.6487 14.8886 14.7736 16.7775L13.8912 16.3331Z" fill="#91BF29"/>
<path fill-rule="evenodd" clip-rule="evenodd" d="M7.38354 11.444L7.49384 10.9995C11.0234 11.444 13.3397 13.3328 14.3324 15.5551C14.4427 15.8884 14.0015 16.1106 14.1118 16.5551C12.347 13.5551 10.0307 11.9995 7.38354 11.444Z" fill="#91BF29"/>
<path fill-rule="evenodd" clip-rule="evenodd" d="M7.93506 10.9997C6.28056 6.44412 3.19218 9.44412 1.20679 8.33301C2.19948 11.1108 5.17757 11.9997 7.71446 11.4441L7.93506 10.9997Z" fill="#91BF29"/>
<path fill-rule="evenodd" clip-rule="evenodd" d="M11.5749 12.6666C13.3397 7.66661 8.92773 7.22217 7.93503 5.22217C7.16294 8.33328 8.59683 10.5555 10.4719 11.8888L11.5749 12.6666Z" fill="#91BF29"/>
</g>
<defs>
<clipPath id="clip0_1005_133">
<rect width="82.9452" height="70" fill="white" transform="translate(0.10376)"/>
</clipPath>
</defs>
</svg>
