<svg width="61" height="71" viewBox="0 0 61 71" fill="none" xmlns="http://www.w3.org/2000/svg">
<path d="M34.7209 24.3141C34.3565 24.4052 33.9921 24.4052 33.5821 24.3597C31.8511 24.1775 30.3479 23.0387 29.118 21.8543C28.708 21.4899 28.3436 21.0799 27.9791 20.6699C26.7948 19.3489 25.7471 17.8001 25.7015 16.0691C25.656 14.657 26.2937 13.2904 27.2959 12.3338C28.0702 11.5594 29.0724 11.0128 30.1657 10.8306C31.4867 10.6028 32.8988 10.8761 34.1287 11.4227C35.5864 12.0149 36.953 12.9715 37.8185 14.247C38.8662 15.7502 39.2306 17.7546 38.8662 19.5767C38.6385 20.5788 38.2285 21.581 37.5908 22.4009C36.8619 23.312 35.8597 24.0864 34.7209 24.3141Z" fill="#FDB913"/>
<path d="M48.6127 29.6436C47.3372 30.4636 45.7429 30.5547 43.9208 29.3703C40.3677 26.956 38.2723 22.4463 40.5043 18.7565C42.0076 16.2512 47.5195 13.4269 50.3437 16.16C52.2569 18.0277 51.4825 23.4485 51.0725 25.635C50.7992 27.2749 49.8882 28.8237 48.6127 29.6436Z" fill="#8DC63F"/>
<path d="M37.6788 8.41622C37.7699 8.18846 37.9066 7.96069 38.0432 7.73293C39.6376 5.59196 42.3252 5.04532 44.3295 5.81972C45.3317 6.22969 46.1972 7.09519 46.7438 8.18846C46.9715 8.68953 47.1538 9.28172 47.1538 9.91946C47.1993 11.1949 46.8804 11.9238 45.8783 12.4704C44.1473 13.427 42.2796 13.2448 40.5486 12.7437C39.1821 12.3337 37.1777 11.286 37.451 9.09951C37.5422 8.9173 37.5877 8.64398 37.6788 8.41622Z" fill="#8DC63F"/>
<path d="M26.6104 22.4917C27.0204 23.7216 27.066 25.0882 26.5649 26.6369C24.6972 32.2855 17.4543 33.6976 12.6713 31.0555C7.9794 28.4135 6.52171 21.1251 11.7147 18.073C16.2244 15.3854 24.8794 17.3898 26.6104 22.4917Z" fill="#8DC63F"/>
<path d="M26.6565 8.46191C26.4287 9.69183 25.8821 10.9218 25.1077 12.015C23.1489 14.7482 19.2314 16.6158 15.9061 15.4315C8.16213 12.6072 15.6328 3.08669 21.0535 2.63117C24.47 2.35785 27.2487 5.09101 26.6565 8.46191Z" fill="#8DC63F"/>
<path d="M32.4403 9.55501C31.5748 9.41835 30.7093 9.00837 29.9349 8.27953C28.295 6.82185 27.2928 4.13424 28.295 2.03882C29.1605 0.262266 31.1648 -0.329914 32.9869 0.171165C36.1756 1.08222 38.4988 5.95635 35.629 8.46175C34.5813 9.3728 33.488 9.73722 32.4403 9.55501Z" fill="#8DC63F"/>
<path d="M15.8151 37.8431C15.8606 37.5698 15.9062 37.342 15.9973 37.0687C16.3617 36.021 16.9995 35.0188 17.9105 34.4267C18.6394 33.9256 19.596 33.6523 20.4615 33.88C21.0536 34.0167 21.6003 34.3811 22.0102 34.8366C22.4202 35.2922 22.7391 35.8388 22.9669 36.431C23.2402 37.0232 23.3768 37.7064 23.3768 38.3442C23.3768 39.0275 23.2402 39.6652 22.8757 40.2118C22.5113 40.7129 22.0102 41.1229 21.4636 41.3962C20.8714 41.6695 20.2792 41.7606 19.6415 41.7606C17.6372 41.8062 15.9062 40.7129 15.7695 38.6175C15.7695 38.3442 15.7695 38.1164 15.8151 37.8431Z" fill="#8DC63F"/>
<path d="M34.2627 26.6826C39.5924 26.6826 45.742 29.9169 44.5121 36.112C43.0544 43.4004 33.9894 44.8126 28.5231 41.2595C25.6988 39.3918 23.1479 35.2921 24.5145 31.8301C25.881 28.1859 30.7096 26.6371 34.2627 26.6826Z" fill="#8DC63F"/>
<path d="M10.3888 58.1297C9.72574 57.7614 9.21001 57.2825 8.84163 56.6562C8.47325 56.03 8.28906 55.3301 8.28906 54.5196C8.28906 53.746 8.47325 53.0461 8.84163 52.383C9.21001 51.7568 9.72574 51.2779 10.3888 50.9095C11.0519 50.5411 11.7887 50.3569 12.6359 50.3569C13.4832 50.3569 14.22 50.5411 14.8831 50.9095C15.5462 51.2779 16.0619 51.7568 16.4303 52.383C16.7986 53.0093 17.0197 53.7092 17.0197 54.5196C17.0197 55.2932 16.8355 55.9931 16.4303 56.6562C16.0619 57.2825 15.5462 57.7614 14.8831 58.1297C14.22 58.4981 13.4832 58.6823 12.6359 58.6823C11.8255 58.6823 11.0519 58.4981 10.3888 58.1297ZM13.9253 56.7667C14.2937 56.5457 14.5884 56.251 14.8094 55.8458C15.0304 55.4406 15.1409 54.9985 15.1409 54.5196C15.1409 54.0407 15.0304 53.5987 14.8094 53.1935C14.5884 52.7882 14.2937 52.4935 13.9253 52.2725C13.5569 52.0515 13.1148 51.941 12.6359 51.941C12.1571 51.941 11.7518 52.0515 11.3466 52.2725C10.9782 52.4935 10.6835 52.7882 10.4625 53.1935C10.2415 53.5987 10.131 54.0407 10.131 54.5196C10.131 54.9985 10.2415 55.4406 10.4625 55.8458C10.6835 56.251 10.9782 56.5457 11.3466 56.7667C11.715 56.9878 12.1571 57.0983 12.6359 57.0983C13.1148 57.0983 13.5569 56.9878 13.9253 56.7667Z" fill="#8DC63F"/>
<path d="M18.2734 50.541V58.5349H20.0785V52.0514H23.6886V58.5349H25.5305V50.541H18.2734Z" fill="#8DC63F"/>
<path d="M27.5176 50.541V58.5349H33.7064V57.0613H29.3595V55.2194H33.0801V53.7828H29.3595V52.0145H33.559V50.541H27.5176Z" fill="#8DC63F"/>
<path d="M40.4495 50.541L38.3497 53.7828H37.0235V50.541H35.1816V58.5349H37.0235V55.33H38.3129L40.3758 58.5349H42.4756L39.7864 54.409L42.4019 50.541H40.4495Z" fill="#8DC63F"/>
<path d="M46.3409 50.541L42.7676 58.5349H44.6463L45.3462 56.8035H49.0669L49.7668 58.5349H51.7192L48.1459 50.541H46.3409ZM47.225 52.3461L48.4775 55.4036H45.9725L47.225 52.3461Z" fill="#8DC63F"/>
<path d="M13.295 62.8519V67.9985H12.4113V63.5589H10.1243V67.9985H9.24064V62.8519H13.295ZM16.4339 67.2315V65.4075C16.4339 65.2709 16.4092 65.153 16.3597 65.0541C16.3102 64.9551 16.2348 64.8785 16.1335 64.8243C16.0345 64.7701 15.9096 64.743 15.7588 64.743C15.6197 64.743 15.4995 64.7666 15.3982 64.8137C15.2969 64.8608 15.2179 64.9245 15.1614 65.0046C15.1048 65.0847 15.0766 65.1754 15.0766 65.2768H14.2282C14.2282 65.1259 14.2647 64.9798 14.3378 64.8384C14.4108 64.6971 14.5169 64.571 14.6559 64.4602C14.795 64.3495 14.9611 64.2623 15.1543 64.1987C15.3476 64.135 15.5644 64.1032 15.8047 64.1032C16.0922 64.1032 16.3467 64.1515 16.5682 64.2481C16.7921 64.3448 16.9677 64.4909 17.0949 64.6865C17.2245 64.8797 17.2893 65.1224 17.2893 65.4146V67.1148C17.2893 67.2892 17.3011 67.4459 17.3247 67.585C17.3506 67.7216 17.3871 67.8406 17.4342 67.942V67.9985H16.5612C16.5211 67.9066 16.4893 67.79 16.4657 67.6486C16.4445 67.5048 16.4339 67.3658 16.4339 67.2315ZM16.5576 65.6727L16.5647 66.1993H15.9532C15.7953 66.1993 15.6563 66.2147 15.5361 66.2453C15.4159 66.2736 15.3157 66.316 15.2356 66.3725C15.1555 66.4291 15.0954 66.4974 15.0553 66.5776C15.0153 66.6577 14.9953 66.7484 14.9953 66.8497C14.9953 66.9511 15.0188 67.0441 15.0659 67.129C15.1131 67.2115 15.1814 67.2763 15.271 67.3234C15.3629 67.3705 15.4736 67.3941 15.6032 67.3941C15.7776 67.3941 15.9296 67.3587 16.0592 67.288C16.1912 67.215 16.2949 67.1266 16.3703 67.0229C16.4457 66.9169 16.4858 66.8167 16.4905 66.7225L16.7662 67.1007C16.7379 67.1973 16.6896 67.301 16.6213 67.4118C16.5529 67.5225 16.4634 67.6286 16.3526 67.7299C16.2442 67.8289 16.1134 67.9102 15.9602 67.9738C15.8094 68.0374 15.635 68.0692 15.4371 68.0692C15.1873 68.0692 14.9646 68.0197 14.769 67.9208C14.5734 67.8194 14.4203 67.6839 14.3095 67.5143C14.1988 67.3422 14.1434 67.1478 14.1434 66.931C14.1434 66.7284 14.1811 66.5493 14.2565 66.3937C14.3343 66.2359 14.4474 66.1039 14.5958 65.9979C14.7466 65.8918 14.9305 65.8117 15.1472 65.7575C15.364 65.7009 15.6115 65.6727 15.8896 65.6727H16.5576ZM20.7923 65.7716V66.4432H18.8128V65.7716H20.7923ZM19.0602 64.1739V67.9985H18.2084V64.1739H19.0602ZM21.4073 64.1739V67.9985H20.5555V64.1739H21.4073ZM23.8781 67.3906C24.0172 67.3906 24.1421 67.3635 24.2528 67.3093C24.3659 67.2527 24.4567 67.1749 24.525 67.076C24.5957 66.977 24.6346 66.8627 24.6417 66.7331H25.444C25.4393 66.9805 25.3663 67.2056 25.2249 67.4082C25.0835 67.6109 24.8962 67.7723 24.6629 67.8925C24.4296 68.0103 24.1715 68.0692 23.8887 68.0692C23.5965 68.0692 23.342 68.0197 23.1252 67.9208C22.9084 67.8194 22.7282 67.6804 22.5844 67.5037C22.4407 67.3269 22.3323 67.1231 22.2592 66.8922C22.1885 66.6612 22.1532 66.4138 22.1532 66.1498V66.0261C22.1532 65.7622 22.1885 65.5148 22.2592 65.2838C22.3323 65.0505 22.4407 64.8455 22.5844 64.6688C22.7282 64.492 22.9084 64.3542 23.1252 64.2552C23.342 64.1539 23.5954 64.1032 23.8852 64.1032C24.1916 64.1032 24.4602 64.1645 24.6911 64.287C24.9221 64.4072 25.1035 64.5757 25.2355 64.7925C25.3698 65.0069 25.4393 65.2567 25.444 65.5419H24.6417C24.6346 65.4005 24.5992 65.2732 24.5356 65.1601C24.4743 65.0446 24.3871 64.9527 24.274 64.8844C24.1633 64.8161 24.0301 64.7819 23.8746 64.7819C23.7026 64.7819 23.56 64.8172 23.4469 64.8879C23.3338 64.9563 23.2454 65.0505 23.1818 65.1707C23.1182 65.2885 23.0722 65.4217 23.0439 65.5701C23.018 65.7162 23.0051 65.8682 23.0051 66.0261V66.1498C23.0051 66.3077 23.018 66.4609 23.0439 66.6094C23.0699 66.7578 23.1146 66.891 23.1783 67.0088C23.2442 67.1243 23.3338 67.2174 23.4469 67.288C23.56 67.3564 23.7038 67.3906 23.8781 67.3906ZM26.9781 66.7543L28.4804 64.1739H29.3323V67.9985H28.4804V65.4146L26.9781 67.9985H26.1263V64.1739H26.9781V66.7543ZM30.0711 66.1286V66.0473C30.0711 65.7716 30.1111 65.5159 30.1912 65.2803C30.2714 65.0423 30.3868 64.8361 30.5377 64.6617C30.6908 64.485 30.877 64.3483 31.0962 64.2517C31.3177 64.1527 31.5675 64.1032 31.8455 64.1032C32.1259 64.1032 32.3757 64.1527 32.5949 64.2517C32.8164 64.3483 33.0038 64.485 33.1569 64.6617C33.3101 64.8361 33.4267 65.0423 33.5069 65.2803C33.587 65.5159 33.6271 65.7716 33.6271 66.0473V66.1286C33.6271 66.4044 33.587 66.66 33.5069 66.8957C33.4267 67.1313 33.3101 67.3375 33.1569 67.5143C33.0038 67.6887 32.8176 67.8253 32.5984 67.9243C32.3793 68.0209 32.1307 68.0692 31.8526 68.0692C31.5722 68.0692 31.3212 68.0209 31.0997 67.9243C30.8805 67.8253 30.6944 67.6887 30.5412 67.5143C30.388 67.3375 30.2714 67.1313 30.1912 66.8957C30.1111 66.66 30.0711 66.4044 30.0711 66.1286ZM30.9229 66.0473V66.1286C30.9229 66.3007 30.9406 66.4633 30.976 66.6164C31.0113 66.7696 31.0667 66.9039 31.1421 67.0194C31.2175 67.1349 31.3141 67.2256 31.432 67.2916C31.5498 67.3576 31.69 67.3906 31.8526 67.3906C32.0105 67.3906 32.1472 67.3576 32.2626 67.2916C32.3805 67.2256 32.4771 67.1349 32.5525 67.0194C32.6279 66.9039 32.6833 66.7696 32.7186 66.6164C32.7563 66.4633 32.7752 66.3007 32.7752 66.1286V66.0473C32.7752 65.8777 32.7563 65.7174 32.7186 65.5666C32.6833 65.4134 32.6267 65.2779 32.5489 65.1601C32.4735 65.0423 32.3769 64.9504 32.2591 64.8844C32.1436 64.8161 32.0058 64.7819 31.8455 64.7819C31.6853 64.7819 31.5462 64.8161 31.4284 64.8844C31.313 64.9504 31.2175 65.0423 31.1421 65.1601C31.0667 65.2779 31.0113 65.4134 30.976 65.5666C30.9406 65.7174 30.9229 65.8777 30.9229 66.0473ZM36.9533 65.7716V66.4432H34.9738V65.7716H36.9533ZM35.2212 64.1739V67.9985H34.3694V64.1739H35.2212ZM37.5683 64.1739V67.9985H36.7164V64.1739H37.5683ZM40.633 67.2315V65.4075C40.633 65.2709 40.6082 65.153 40.5587 65.0541C40.5093 64.9551 40.4338 64.8785 40.3325 64.8243C40.2335 64.7701 40.1086 64.743 39.9578 64.743C39.8188 64.743 39.6986 64.7666 39.5973 64.8137C39.496 64.8608 39.417 64.9245 39.3605 65.0046C39.3039 65.0847 39.2756 65.1754 39.2756 65.2768H38.4273C38.4273 65.1259 38.4638 64.9798 38.5369 64.8384C38.6099 64.6971 38.7159 64.571 38.855 64.4602C38.994 64.3495 39.1602 64.2623 39.3534 64.1987C39.5466 64.135 39.7634 64.1032 40.0038 64.1032C40.2913 64.1032 40.5458 64.1515 40.7673 64.2481C40.9912 64.3448 41.1667 64.4909 41.294 64.6865C41.4236 64.8797 41.4884 65.1224 41.4884 65.4146V67.1148C41.4884 67.2892 41.5002 67.4459 41.5237 67.585C41.5497 67.7216 41.5862 67.8406 41.6333 67.942V67.9985H40.7602C40.7202 67.9066 40.6884 67.79 40.6648 67.6486C40.6436 67.5048 40.633 67.3658 40.633 67.2315ZM40.7567 65.6727L40.7638 66.1993H40.1522C39.9944 66.1993 39.8553 66.2147 39.7351 66.2453C39.615 66.2736 39.5148 66.316 39.4347 66.3725C39.3546 66.4291 39.2945 66.4974 39.2544 66.5776C39.2143 66.6577 39.1943 66.7484 39.1943 66.8497C39.1943 66.9511 39.2179 67.0441 39.265 67.129C39.3121 67.2115 39.3805 67.2763 39.47 67.3234C39.5619 67.3705 39.6727 67.3941 39.8023 67.3941C39.9767 67.3941 40.1287 67.3587 40.2583 67.288C40.3903 67.215 40.4939 67.1266 40.5693 67.0229C40.6448 66.9169 40.6848 66.8167 40.6895 66.7225L40.9652 67.1007C40.937 67.1973 40.8887 67.301 40.8203 67.4118C40.752 67.5225 40.6624 67.6286 40.5517 67.7299C40.4433 67.8289 40.3125 67.9102 40.1593 67.9738C40.0085 68.0374 39.8341 68.0692 39.6362 68.0692C39.3864 68.0692 39.1637 68.0197 38.9681 67.9208C38.7725 67.8194 38.6193 67.6839 38.5086 67.5143C38.3978 67.3422 38.3424 67.1478 38.3424 66.931C38.3424 66.7284 38.3801 66.5493 38.4556 66.3937C38.5333 66.2359 38.6464 66.1039 38.7949 65.9979C38.9457 65.8918 39.1295 65.8117 39.3463 65.7575C39.5631 65.7009 39.8105 65.6727 40.0886 65.6727H40.7567ZM44.097 64.1739V67.9985H43.2416V64.1739H44.097ZM45.3519 64.1739V64.8455H42.008V64.1739H45.3519ZM46.5537 65.3899H47.6813C48.0112 65.3899 48.2916 65.4452 48.5226 65.556C48.7535 65.6668 48.9291 65.8211 49.0493 66.0191C49.1718 66.2147 49.2331 66.4385 49.2331 66.6907C49.2331 66.8768 49.1989 67.05 49.1306 67.2103C49.0622 67.3682 48.9609 67.506 48.8266 67.6238C48.6946 67.7417 48.532 67.8336 48.3388 67.8996C48.1479 67.9655 47.9287 67.9985 47.6813 67.9985H45.9882V64.1739H46.8436V67.3234H47.6813C47.851 67.3234 47.9865 67.2939 48.0878 67.235C48.1891 67.1761 48.2622 67.0995 48.307 67.0053C48.3541 66.911 48.3777 66.8109 48.3777 66.7048C48.3777 66.5964 48.3541 66.4939 48.307 66.3973C48.2622 66.3007 48.1891 66.2217 48.0878 66.1605C47.9865 66.0992 47.851 66.0685 47.6813 66.0685H46.5537V65.3899ZM50.7389 64.1739V67.9985H49.887V64.1739H50.7389Z" fill="#FDB913"/>
</svg>